<svg width="80" height="80" viewBox="0 0 80 80" fill="none" xmlns="http://www.w3.org/2000/svg">
<path d="M66.392 2.81699L66.3921 2.81696C66.6619 2.62464 67.068 2.5 67.5088 2.5C67.953 2.5 68.3547 2.62346 68.6329 2.81808C68.9164 3.02059 69.0117 3.23906 69.0117 3.40083L69.0117 76.5992C69.0117 76.7665 68.915 76.9841 68.6344 77.1809C68.3561 77.3761 67.9538 77.5 67.5088 77.5C67.068 77.5 66.6619 77.3754 66.3921 77.183L66.389 77.1809C66.1084 76.9841 66.0117 76.7665 66.0117 76.5992L66.0117 3.40083C66.0117 3.23877 66.1074 3.01981 66.392 2.81699Z" fill="white" stroke="#002163"/>
<path d="M60.5116 52.6279C60.5116 56.2841 63.4791 59.2515 67.1396 59.2515C70.7958 59.2515 73.7632 56.2841 73.7632 52.6279C73.7632 48.9631 70.7958 46 67.1396 46C63.4791 46 60.5116 48.9631 60.5116 52.6279Z" fill="#00DDEE" stroke="#002163"/>
<path d="M38.5 3.40083C38.5 3.2295 38.5952 3.01316 38.8719 2.81933C39.1508 2.62399 39.5539 2.5 40 2.5C40.4452 2.5 40.8477 2.62354 41.1265 2.81826C41.4025 3.01521 41.5 3.23312 41.5 3.40083L41.5 76.5992C41.5 76.7669 41.4024 76.9849 41.1263 77.1819C40.8475 77.3765 40.4451 77.5 40 77.5C39.5539 77.5 39.1508 77.376 38.8719 77.1807L38.5851 77.5902L38.8719 77.1807C38.5952 76.9868 38.5 76.7705 38.5 76.5992L38.5 3.40083Z" fill="white" stroke="#002163"/>
<path d="M33.2559 42.6279C33.2559 46.2885 36.2233 49.2559 39.8838 49.2559C43.5443 49.2559 46.5117 46.2885 46.5117 42.6279C46.5117 38.9717 43.5443 36 39.8838 36C36.2233 36 33.2559 38.9717 33.2559 42.6279Z" fill="#7698DD" stroke="#002163"/>
<path d="M11.5 3.40083C11.5 3.2295 11.5952 3.01316 11.8719 2.81933C12.1508 2.62399 12.5539 2.5 13 2.5C13.4452 2.5 13.8477 2.62353 14.1265 2.81826C14.4025 3.01521 14.5 3.23312 14.5 3.40083L14.5 76.5992C14.5 76.7669 14.4024 76.9849 14.1263 77.1819C13.8475 77.3765 13.4451 77.5 13 77.5C12.5539 77.5 12.1508 77.376 11.8719 77.1807L11.5851 77.5902L11.8719 77.1807C11.5952 76.9868 11.5 76.7705 11.5 76.5992L11.5 3.40083Z" fill="white" stroke="#002163"/>
<path d="M6 25.6279C6 29.2885 8.9674 32.2559 12.6279 32.2559C16.2885 32.2559 19.2559 29.2885 19.2559 25.6279C19.2559 21.9717 16.2885 19 12.6279 19C8.9674 19 6 21.9717 6 25.6279Z" fill="#0055FF" stroke="#002163"/>
</svg>
